<svg width="24" height="24" viewBox="0 0 24 24" fill="none" xmlns="http://www.w3.org/2000/svg">
<path d="M1.66191 15.9234C2.69736 18.6426 4.77556 20.8497 7.40603 22.0562C7.42024 22.0644 7.43439 22.0711 7.45031 22.0762C8.83909 22.7057 10.3784 23.0593 11.9998 23.0593C13.3503 23.0593 14.6444 22.8151 15.8418 22.3701C15.8719 22.365 15.8999 22.3539 15.9264 22.3366C18.633 21.3049 20.8321 19.2403 22.0413 16.6263C22.0647 16.5978 22.0795 16.5638 22.0867 16.5262C22.7096 15.1435 23.0592 13.6124 23.0592 12.0001C23.0592 5.90197 18.098 0.940735 11.9998 0.940735C10.6355 0.940735 9.32895 1.1907 8.12126 1.64447C8.11905 1.6453 8.11695 1.64607 8.11479 1.64701C5.37918 2.67699 3.15793 4.76143 1.94537 7.40252C1.93785 7.41568 1.93155 7.42883 1.92679 7.44359C1.2952 8.83414 0.94043 10.376 0.94043 12.0001C0.94043 13.3548 1.18641 14.6528 1.63416 15.8533C1.63924 15.8782 1.64842 15.9012 1.66191 15.9234ZM7.29133 21.5004C4.94216 20.3314 3.08662 18.3171 2.12259 15.8576L7.29133 10.6835V21.5004ZM11.9998 22.6065C10.4867 22.6065 9.04781 22.2858 7.74416 21.7123V14.4017L15.3841 22.0496C14.3204 22.4088 13.1831 22.6065 11.9998 22.6065ZM15.8534 21.8788L10.6913 16.7113H21.4989C20.329 19.0604 18.3138 20.9156 15.8534 21.8788ZM22.6064 12.0001C22.6064 13.5143 22.2852 14.9541 21.711 16.2585H14.4065L22.0474 8.60966C22.408 9.67507 22.6064 10.8146 22.6064 12.0001ZM16.7081 2.49955C19.0567 3.66822 20.9119 5.68174 21.8762 8.14041L16.7081 13.3139V2.49955ZM13.8016 16.2233C13.7913 16.2337 13.7862 16.2467 13.7783 16.2585H10.2829C10.2699 16.2585 10.2587 16.2638 10.2463 16.2659L7.77932 13.7962C7.76892 13.7858 7.75588 13.7808 7.74416 13.7729V10.2861C7.74416 10.2696 7.73813 10.2551 7.73476 10.2396L10.1978 7.77409C10.2082 7.7637 10.2132 7.75066 10.2211 7.73894H13.7163C13.7294 7.73894 13.7407 7.73363 13.7532 7.73153L16.2201 10.201C16.2305 10.2114 16.2436 10.2164 16.2553 10.2243V13.7111C16.2553 13.7277 16.2613 13.7422 16.2647 13.7577L13.8016 16.2233ZM11.9998 1.39356C13.5129 1.39356 14.9517 1.71423 16.2553 2.28762V9.59547L8.61743 1.94976C9.68052 1.59101 10.8172 1.39356 11.9998 1.39356ZM8.14801 2.12057L13.3082 7.28611H2.50212C3.6725 4.93771 5.68774 3.08317 8.14801 2.12057ZM2.28991 7.73894H9.59296L1.95145 15.3882C1.59143 14.3235 1.39326 13.1848 1.39326 12.0001C1.39326 10.4849 1.71492 9.04403 2.28991 7.73894Z" fill="black"/>
</svg>
