<svg width="22" height="22" viewBox="0 0 22 22" fill="none" xmlns="http://www.w3.org/2000/svg">
<path d="M17.3623 18.8717H4.64247C3.80032 18.8717 3.11768 18.189 3.11768 17.3469V4.62703C3.11768 3.78487 3.80036 3.10223 4.64247 3.10223H17.3623C18.2045 3.10223 18.8871 3.78492 18.8871 4.62703V17.3469C18.8871 18.189 18.2044 18.8717 17.3623 18.8717Z" stroke="black" stroke-width="0.703125" stroke-miterlimit="10" stroke-linecap="round" stroke-linejoin="round"/>
<path d="M6.23877 2.88961V0.557434" stroke="black" stroke-width="0.703125" stroke-miterlimit="10" stroke-linecap="round" stroke-linejoin="round"/>
<path d="M8.62061 2.88961V0.557434" stroke="black" stroke-width="0.703125" stroke-miterlimit="10" stroke-linecap="round" stroke-linejoin="round"/>
<path d="M11.0024 2.88961V0.557434" stroke="black" stroke-width="0.703125" stroke-miterlimit="10" stroke-linecap="round" stroke-linejoin="round"/>
<path d="M13.3843 2.88961V0.557434" stroke="black" stroke-width="0.703125" stroke-miterlimit="10" stroke-linecap="round" stroke-linejoin="round"/>
<path d="M15.7661 2.88961V0.557434" stroke="black" stroke-width="0.703125" stroke-miterlimit="10" stroke-linecap="round" stroke-linejoin="round"/>
<path d="M6.23877 21.4165V19.0843" stroke="black" stroke-width="0.703125" stroke-miterlimit="10" stroke-linecap="round" stroke-linejoin="round"/>
<path d="M8.62061 21.4165V19.0843" stroke="black" stroke-width="0.703125" stroke-miterlimit="10" stroke-linecap="round" stroke-linejoin="round"/>
<path d="M11.0024 21.4165V19.0843" stroke="black" stroke-width="0.703125" stroke-miterlimit="10" stroke-linecap="round" stroke-linejoin="round"/>
<path d="M13.3843 21.4165V19.0843" stroke="black" stroke-width="0.703125" stroke-miterlimit="10" stroke-linecap="round" stroke-linejoin="round"/>
<path d="M15.7661 21.4165V19.0843" stroke="black" stroke-width="0.703125" stroke-miterlimit="10" stroke-linecap="round" stroke-linejoin="round"/>
<path d="M2.90497 15.8038H0.572754" stroke="black" stroke-width="0.703125" stroke-miterlimit="10" stroke-linecap="round" stroke-linejoin="round"/>
<path d="M2.90497 13.3954H0.572754" stroke="black" stroke-width="0.703125" stroke-miterlimit="10" stroke-linecap="round" stroke-linejoin="round"/>
<path d="M2.90497 10.9869H0.572754" stroke="black" stroke-width="0.703125" stroke-miterlimit="10" stroke-linecap="round" stroke-linejoin="round"/>
<path d="M2.90497 8.57855H0.572754" stroke="black" stroke-width="0.703125" stroke-miterlimit="10" stroke-linecap="round" stroke-linejoin="round"/>
<path d="M2.90497 6.1701H0.572754" stroke="black" stroke-width="0.703125" stroke-miterlimit="10" stroke-linecap="round" stroke-linejoin="round"/>
<path d="M21.4318 15.8038H19.0996" stroke="black" stroke-width="0.703125" stroke-miterlimit="10" stroke-linecap="round" stroke-linejoin="round"/>
<path d="M21.4318 13.3954H19.0996" stroke="black" stroke-width="0.703125" stroke-miterlimit="10" stroke-linecap="round" stroke-linejoin="round"/>
<path d="M21.4318 10.9869H19.0996" stroke="black" stroke-width="0.703125" stroke-miterlimit="10" stroke-linecap="round" stroke-linejoin="round"/>
<path d="M21.4318 8.57855H19.0996" stroke="black" stroke-width="0.703125" stroke-miterlimit="10" stroke-linecap="round" stroke-linejoin="round"/>
<path d="M21.4318 6.1701H19.0996" stroke="black" stroke-width="0.703125" stroke-miterlimit="10" stroke-linecap="round" stroke-linejoin="round"/>
<path d="M14.8795 12.7913V9.18261C14.8795 8.80981 14.6867 8.46345 14.3699 8.267L11.5699 6.53098C11.2222 6.31536 10.7823 6.31536 10.4346 6.53098L7.63463 8.267C7.31775 8.46345 7.125 8.80976 7.125 9.18261V12.7913C7.125 13.1641 7.31775 13.5105 7.63463 13.7069L10.4346 15.443C10.7823 15.6586 11.2222 15.6586 11.5699 15.443L14.3699 13.7069C14.6867 13.5105 14.8795 13.1642 14.8795 12.7913Z" stroke="black" stroke-width="0.703125" stroke-miterlimit="10" stroke-linecap="round" stroke-linejoin="round"/>
<path d="M11.0021 12.7952C12.0064 12.7952 12.8205 11.981 12.8205 10.9767C12.8205 9.97242 12.0064 9.15826 11.0021 9.15826C9.99775 9.15826 9.18359 9.97242 9.18359 10.9767C9.18359 11.981 9.99775 12.7952 11.0021 12.7952Z" stroke="black" stroke-width="0.703125" stroke-miterlimit="10" stroke-linecap="round" stroke-linejoin="round"/>
</svg>
